<?xml version="1.0" standalone="no"?>
<!DOCTYPE svg PUBLIC "-//W3C//DTD SVG 20010904//EN"
 "http://www.w3.org/TR/2001/REC-SVG-20010904/DTD/svg10.dtd">
<svg version="1.0" xmlns="http://www.w3.org/2000/svg"
 width="524.000000pt" height="524.000000pt" viewBox="0 0 524.000000 524.000000"
 preserveAspectRatio="xMidYMid meet">
<metadata>
Created by potrace 1.11, written by Peter Selinger 2001-2013
</metadata>
<g transform="translate(0.000000,524.000000) scale(0.100000,-0.100000)"
fill="#000000" stroke="none">
<path d="M1264 3392 c-162 -55 -284 -176 -339 -337 -23 -68 -30 -191 -15 -267
11 -60 65 -188 78 -188 4 0 6 36 6 80 -1 44 2 77 6 75 5 -3 8 -45 7 -93 -1
-68 3 -93 17 -114 37 -57 42 -44 41 124 0 88 3 162 7 164 4 3 8 -73 8 -170 l0
-174 38 -29 c91 -68 168 -94 297 -99 84 -2 112 1 172 20 78 25 156 71 204 118
l29 30 1 136 c0 75 4 129 8 119 4 -10 6 -68 5 -128 -1 -60 0 -109 2 -109 2 0
15 17 29 39 22 32 25 48 24 105 -1 36 1 69 5 73 3 3 6 -20 6 -52 0 -121 51 18
56 151 9 239 -120 435 -343 521 -54 21 -89 27 -168 29 -87 3 -110 0 -181 -24z
m291 -29 c112 -31 214 -103 274 -193 77 -116 87 -163 45 -217 -36 -48 -106
-80 -181 -82 -78 -3 -125 11 -239 71 -147 77 -253 95 -364 62 -57 -17 -90 -35
-128 -68 l-23 -21 6 50 c25 186 170 345 365 401 58 16 181 15 245 -3z m-260
-725 c0 -70 -4 -130 -8 -134 -4 -4 -7 62 -6 147 0 85 4 145 8 134 4 -11 7 -77
6 -147z m-145 12 c0 -77 -3 -140 -8 -140 -4 0 -7 63 -7 140 0 77 3 140 7 140
5 0 8 -63 8 -140z m480 -2 c0 -67 -3 -119 -6 -116 -3 3 -5 43 -5 89 -1 120 0
149 6 149 3 0 5 -55 5 -122z m-200 -5 c0 -65 -4 -112 -8 -106 -4 7 -7 56 -6
110 2 111 2 113 9 113 3 0 5 -53 5 -117z m-202 7 c0 -55 -4 -100 -8 -100 -7 0
-11 180 -3 193 10 16 11 3 11 -93z m472 -2 c0 -57 -4 -98 -8 -91 -4 7 -7 49
-6 95 2 97 2 98 9 98 3 0 5 -46 5 -102z m-135 -3 c0 -47 -3 -85 -7 -85 -4 0
-8 41 -8 92 0 50 3 88 7 85 4 -4 7 -45 8 -92z m-204 6 c1 -40 -2 -75 -5 -78
-3 -4 -6 31 -6 77 0 46 2 81 5 78 3 -3 6 -38 6 -77z m405 -6 c0 -47 -3 -85 -6
-85 -4 0 -6 38 -6 85 0 47 3 85 6 85 4 0 7 -38 6 -85z m-268 5 c1 -33 -2 -60
-7 -60 -6 0 -9 107 -2 118 5 9 7 -6 9 -58z"/>
<path d="M219 3377 c-109 -37 -172 -106 -184 -201 -19 -149 59 -224 305 -294
224 -65 290 -117 296 -236 6 -139 -87 -224 -257 -234 -109 -6 -195 20 -271 81
-79 65 -77 64 -94 43 -17 -23 -6 -38 66 -91 75 -54 159 -79 270 -80 124 0 192
21 256 79 60 54 87 118 83 203 -6 152 -73 207 -359 293 -123 38 -166 58 -201
97 -41 43 -48 75 -36 151 6 32 18 54 50 85 60 60 109 77 220 74 77 -2 101 -6
147 -29 30 -15 70 -43 89 -62 30 -31 34 -33 51 -19 25 21 17 36 -41 79 -109
79 -263 104 -390 61z"/>
<path d="M2231 3381 c-10 -6 -12 -93 -9 -377 3 -356 4 -371 26 -426 32 -80 97
-148 174 -183 57 -26 74 -29 168 -29 129 1 197 24 264 88 101 98 110 145 111
578 0 324 -1 347 -17 351 -10 3 -21 0 -25 -6 -4 -6 -8 -167 -8 -357 -2 -386
-5 -412 -70 -500 -50 -68 -121 -102 -227 -108 -116 -7 -187 17 -255 84 -41 41
-55 64 -72 119 -20 63 -21 91 -21 415 0 359 -2 374 -39 351z"/>
<path d="M4063 3383 l-23 -4 -2 -451 -3 -451 -150 204 c-456 621 -516 699
-541 699 -13 0 -24 -3 -25 -7 -1 -11 -1 -932 0 -965 1 -23 6 -28 25 -28 l24 0
-1 450 c0 248 2 453 5 455 2 2 123 -159 268 -358 146 -198 296 -403 333 -454
54 -73 74 -93 93 -93 l24 0 0 505 c0 278 -1 504 -2 504 -2 -1 -13 -4 -25 -6z"/>
<path d="M4456 3378 c-9 -5 -12 -118 -12 -500 l1 -493 185 -2 c206 -2 260 6
355 54 237 120 326 451 189 703 -60 110 -187 203 -315 229 -61 13 -383 20
-403 9z m414 -58 c189 -52 308 -213 314 -425 7 -206 -101 -379 -274 -440 -65
-23 -107 -28 -270 -29 l-145 -1 -2 445 c-1 245 -1 450 1 455 5 15 319 11 376
-5z"/>
<path d="M469 2039 c-1 -8 -2 -60 -3 -116 l-1 -102 56 3 c91 5 129 38 129 113
0 33 -7 50 -29 75 -24 27 -36 32 -90 36 -47 3 -61 1 -62 -9z m133 -39 c27 -27
30 -36 25 -72 -3 -22 -14 -49 -24 -59 -21 -22 -102 -36 -112 -21 -5 8 -6 141
-2 175 1 4 19 7 42 7 32 0 47 -6 71 -30z"/>
<path d="M719 2043 c0 -10 0 -182 0 -204 1 -14 13 -16 71 -16 39 1 70 5 70 9
0 9 -6 10 -72 10 l-48 0 0 44 0 44 60 0 c33 0 60 4 60 10 0 6 -27 10 -60 10
l-60 0 0 40 0 40 60 0 c33 0 60 4 60 10 0 12 -140 14 -141 3z"/>
<path d="M910 2042 c0 -14 81 -207 91 -217 7 -7 14 -3 22 10 22 37 88 207 82
213 -10 10 -22 -12 -55 -98 -18 -47 -34 -89 -37 -94 -3 -4 -23 37 -45 93 -22
56 -44 101 -49 101 -5 0 -9 -4 -9 -8z"/>
<path d="M1168 2043 c-3 -7 -2 -195 1 -214 2 -10 141 -7 141 3 0 4 -12 8 -27
9 -98 3 -96 2 -98 34 -3 50 3 55 66 55 33 0 59 4 59 10 0 6 -28 10 -63 10
l-63 0 2 33 c1 17 2 35 3 40 1 4 28 7 61 7 33 0 60 4 60 10 0 12 -137 14 -142
3z"/>
<path d="M1378 2038 c-2 -7 -4 -58 -4 -112 l1 -100 63 -3 c36 -2 62 1 62 7 0
11 -3 11 -65 14 l-40 1 1 103 c0 92 -6 124 -18 90z"/>
<path d="M1587 2030 c-25 -20 -50 -79 -42 -103 2 -7 6 -25 9 -40 8 -32 58 -67
98 -67 87 0 137 95 94 178 -9 17 -25 36 -35 42 -33 17 -96 12 -124 -10z m147
-62 c24 -94 -58 -164 -132 -113 -42 30 -45 113 -6 156 40 44 123 18 138 -43z"/>
<path d="M1830 1935 c0 -70 4 -115 10 -115 6 0 10 22 10 48 l0 48 47 1 c39 2
52 7 69 29 18 22 20 32 12 56 -13 37 -35 48 -97 48 l-51 0 0 -115z m111 85
c25 -14 25 -55 0 -72 -11 -8 -34 -13 -53 -13 -32 1 -33 2 -36 48 l-3 47 36 0
c20 0 45 -5 56 -10z"/>
<path d="M2040 1941 c0 -62 4 -112 10 -116 11 -7 11 -9 12 103 0 45 1 82 3 82
1 0 19 -43 40 -95 21 -52 42 -92 46 -88 4 5 22 44 39 88 17 44 35 83 38 87 4
4 7 -32 7 -80 0 -48 4 -88 10 -90 5 -1 9 42 9 105 0 91 -2 108 -16 111 -15 3
-25 -17 -80 -158 -9 -23 -13 -18 -47 65 -23 56 -44 91 -54 93 -15 3 -17 -9
-17 -107z"/>
<path d="M2330 1936 l0 -114 70 0 c39 0 70 4 70 9 0 10 -14 12 -77 10 l-43 -1
0 45 0 45 60 0 c33 0 60 4 60 10 0 6 -27 10 -60 10 l-60 0 0 40 0 40 60 0 c33
0 60 4 60 10 0 6 -30 10 -70 10 l-70 0 0 -114z"/>
<path d="M2540 1941 c0 -63 4 -112 10 -116 6 -4 10 29 10 90 l0 97 71 -96 c39
-53 75 -94 80 -90 12 7 12 224 -1 224 -5 0 -11 -41 -12 -92 l-3 -92 -69 92
c-37 51 -72 92 -77 92 -5 0 -9 -49 -9 -109z"/>
<path d="M2780 2040 c0 -5 16 -10 35 -10 l35 0 0 -105 c0 -63 4 -105 10 -105
6 0 10 42 10 105 l0 105 35 0 c19 0 35 5 35 10 0 6 -33 10 -80 10 -47 0 -80
-4 -80 -10z"/>
<path d="M3140 2021 c-37 -36 -46 -72 -31 -122 21 -70 104 -100 164 -61 34 23
25 35 -11 16 -55 -29 -111 -10 -130 43 -13 40 -6 82 18 108 29 31 64 36 105
15 41 -21 56 -10 20 14 -40 27 -102 21 -135 -13z"/>
<path d="M3401 2036 c-46 -26 -66 -103 -40 -159 30 -67 143 -76 183 -15 38 57
26 136 -26 172 -27 19 -84 20 -117 2z m116 -28 c29 -33 36 -72 19 -112 -39
-94 -166 -64 -166 39 0 31 24 81 42 88 34 14 85 6 105 -15z"/>
<path d="M3637 2043 c-9 -17 -2 -216 8 -220 7 -2 10 31 10 92 -1 52 0 95 1 95
0 0 18 -40 38 -90 21 -49 41 -90 46 -90 4 0 22 36 40 80 18 44 35 80 39 80 4
0 7 -35 7 -77 -1 -46 3 -78 9 -78 6 0 10 42 10 105 0 88 -3 105 -16 108 -12 2
-25 -20 -49 -83 -18 -47 -36 -88 -39 -90 -4 -2 -22 37 -41 86 -31 79 -50 104
-63 82z"/>
<path d="M3920 1935 c0 -70 4 -115 10 -115 6 0 10 22 10 49 l0 49 35 -3 c20
-1 48 6 65 16 24 15 30 26 30 53 0 47 -29 66 -97 66 l-53 0 0 -115z m111 85
c23 -13 25 -52 4 -70 -8 -6 -31 -13 -52 -13 l-38 -2 -3 48 -3 47 36 0 c20 0
45 -5 56 -10z"/>
<path d="M4132 1948 c-23 -57 -42 -109 -42 -115 0 -24 16 -13 27 18 11 29 13
30 70 27 52 -3 59 -6 71 -30 14 -31 37 -39 28 -10 -23 71 -87 208 -98 210 -9
2 -29 -34 -56 -100z m68 49 c1 -7 9 -30 20 -52 10 -22 17 -42 15 -44 -5 -5
-86 -3 -91 2 -8 8 39 117 47 111 5 -3 9 -11 9 -17z"/>
<path d="M4343 1935 c0 -86 3 -113 11 -106 7 6 11 42 10 95 0 48 0 86 1 86 2
0 31 -39 66 -87 59 -82 76 -102 89 -103 11 0 4 224 -7 227 -7 3 -11 -21 -11
-74 0 -43 0 -85 -1 -93 -1 -8 -31 26 -67 75 -36 50 -71 91 -78 93 -10 2 -13
-25 -13 -113z"/>
<path d="M4586 2038 c4 -7 24 -38 44 -68 30 -45 36 -63 35 -102 -1 -27 2 -48
6 -48 11 0 17 25 15 60 -2 26 8 49 41 97 46 67 48 73 34 73 -5 0 -27 -25 -49
-55 l-39 -56 -37 56 c-20 30 -41 55 -47 55 -5 0 -7 -6 -3 -12z"/>
</g>
</svg>
